PathFileType	4	(X/Y/Z)	pose_F01_0-96.trc
DataRate	CameraRate	NumFrames	NumMarkers	Units	OrigDataRate	OrigDataStartFrame	OrigNumFrames
30	30	6	21	m	30	0	96
Frame#	Time	CHip			RHip			RKnee			RAnkle			RBigToe			RSmallToe			RHeel			LHip			LKnee			LAnkle			LBigToe			LSmallToe			LHeel			Neck			Nose			RShoulder			RElbow			RWrist			LShoulder			LElbow			LWrist			
		X1	Y1	Z1	X2	Y2	Z2	X3	Y3	Z3	X4	Y4	Z4	X5	Y5	Z5	X6	Y6	Z6	X7	Y7	Z7	X8	Y8	Z8	X9	Y9	Z9	X10	Y10	Z10	X11	Y11	Z11	X12	Y12	Z12	X13	Y13	Z13	X14	Y14	Z14	X15	Y15	Z15	X16	Y16	Z16	X17	Y17	Z17	X18	Y18	Z18	X19	Y19	Z19	X20	Y20	Z20	X21	Y21	Z21	
0	0.0	-0.15282302263632944	1.847832123941884	-0.5610119623814745	-0.17746722303859327	1.8569606575568454	-0.4372200823662808	-0.15590528751555185	1.729397460682925	-0.4764944993586106	-0.1768843537355597	1.5565696189827867	-0.4272365674605448							-0.14792599719240307	1.5315948000085566	-0.40036877579675484	-0.15939558180567487	1.849219095351816	-0.593316014436678	-0.12921302328513679	1.717678649039724	-0.6094690434442529	-0.14191259519215296	1.5755746326670106	-0.5794691243994676	-0.17636830506404022	1.545777291162603	-0.6156051517767341	-0.16201413842573487	1.5566736686590052	-0.6305853951221742	-0.14687712364273847	1.5678611220754293	-0.5576879919798348	-0.16371920060581807	2.0450473276510643	-0.54779939970879	-0.19517422041116966	2.1106162429100537	-0.5714221892968608	-0.17763667017297446	2.0559864008874347	-0.4624969261878686	-0.18475096468277558	1.9382239754414625	-0.436365865346361	-0.21799219669613315	1.844993209387279	-0.3811884655454923	-0.14382798508950695	2.0350267198796903	-0.6290010902251457	-1.5664682323969616	1.8730115943111159	0.8688923411030663	-0.11990119183706263	1.8474115615476476	-0.6750928386144256
1	0.03333333333333333	-0.1547212956715013	1.8501735006903508	-0.5592702094779559	-0.17830782156793826	1.8581767625362384	-0.4406033057810666	-0.1578067086860262	1.7293182096067314	-0.4743351067791717	-0.1769149918364586	1.5592904005151302	-0.42753059166735335							-0.14969935700588238	1.5354801075999478	-0.40319038804949336	-0.15934137019508177	1.8517053003984416	-0.5936859996450136	-0.13107589600560166	1.7188544082385833	-0.6075979232038182	-0.14211511686926775	1.5769662209471482	-0.5792932745373707	-0.1763957598669459	1.545745274960772	-0.6155211815349204	-0.16203099686625977	1.556611808094469	-0.6305297991813182	-0.1465027216559043	1.5687833556096424	-0.5583154467664385	-0.16367447819664058	2.0450509671915413	-0.5477801497192327	-0.1951699296415987	2.1106374431174713	-0.5714144529986901	-0.17771272019807186	2.0548414509195125	-0.46255053728371975	-0.18460608010458918	1.9392424460950064	-0.4364105333142574	-0.21626583508949396	1.8473139971083437	-0.38385668028328135	-0.1438131826851797	2.0362192916540383	-0.6294626762052609	-1.5853182147684504	1.8745602313336445	0.9012208552972375	-0.12173581339421169	1.8505419879285125	-0.6730234140263645
2	0.06666666666666667	-0.15661956870667318	1.8525148774388176	-0.5575284565744373	-0.17914842009728324	1.8593928675156315	-0.4439865291958524	-0.15970812985650054	1.7292389585305379	-0.47217571419973275	-0.1769456299373575	1.5620111820474738	-0.42782461587416193							-0.1514727168193617	1.539365415191339	-0.4060120003022319	-0.15928715858448866	1.8541915054450673	-0.5940559848533491	-0.13293876872606653	1.7200301674374425	-0.6057268029633835	-0.14231763854638255	1.5783578092272859	-0.5791174246752737	-0.17642321466985156	1.545713258758941	-0.6154372112931067	-0.16204785530678467	1.556549947529933	-0.6304742032404623	-0.14612831966907014	1.5697055891438556	-0.5589429015530423	-0.16362975578746308	2.0450546067320183	-0.5477608997296755	-0.19516563887202776	2.110658643324889	-0.5714067167005193	-0.17778877022316925	2.0536965009515904	-0.4626041483795709	-0.18446119552640278	1.9402609167485503	-0.43645520128215376	-0.21453947348285476	1.8496347848294084	-0.3865248950210704	-0.14379838028085246	2.037411863428386	-0.629924262185376	-1.604168197139939	1.876108868356173	0.9335493694914087	-0.12357043495136075	1.8536724143093775	-0.6709539894383033
3	0.1	-0.15851784174184505	1.8548562541872844	-0.5557867036709186	-0.17998901862662822	1.8606089724950245	-0.4473697526106382	-0.16160955102697488	1.7291597074543443	-0.47001632162029383	-0.1769762680382564	1.5647319635798174	-0.4281186400809705							-0.153246076632841	1.5432507227827301	-0.4088336125549704	-0.15923294697389556	1.856677710491693	-0.5944259700616846	-0.1348016414465314	1.7212059266363018	-0.6038556827229489	-0.14252016022349734	1.5797493975074235	-0.5789415748131768	-0.17645066947275723	1.54568124255711	-0.615353241051293	-0.16206471374730957	1.5564880869653968	-0.6304186072996064	-0.14575391768223597	1.5706278226780688	-0.559570356339646	-0.1635850333782856	2.0450582462724953	-0.5477416497401182	-0.1951613481024568	2.1106798435323064	-0.5713989804023486	-0.17786482024826664	2.0525515509836683	-0.4626577594754221	-0.18431631094821638	1.9412793874020942	-0.43649986925005013	-0.21281311187621557	1.851955572550473	-0.38919310975885946	-0.1437835778765252	2.038604435202734	-0.6303858481654911	-1.6230181795114278	1.8776575053787017	0.9658778836855798	-0.1254050565085098	1.8568028406902424	-0.6688845648502422
4	0.13333333333333333	-0.16041611477701692	1.8571976309357512	-0.5540449507674	-0.1808296171559732	1.8618250774744176	-0.450752976025424	-0.16351097219744923	1.7290804563781508	-0.4678569290408549	-0.1770069061391553	1.567452745112161	-0.4284126642877791							-0.15501943644632032	1.5471360303741213	-0.41165522480770894	-0.15917873536330246	1.8591639155383186	-0.5947959552700202	-0.13666451416699626	1.722381685835161	-0.6019845624825142	-0.14272268190061213	1.5811409857875611	-0.5787657249510798	-0.1764781242756629	1.545649226355279	-0.6152692708094792	-0.16208157218783448	1.5564262264008606	-0.6303630113587505	-0.1453795156954018	1.571550056212282	-0.5601978111262498	-0.1635403109691081	2.0450618858129723	-0.5477223997505609	-0.19515705733288585	2.110701043739724	-0.5713912441041779	-0.17794087027336403	2.051406601015746	-0.46271137057127326	-0.18417142637002998	1.942297858055638	-0.4365445372179465	-0.21108675026957638	1.8542763602715377	-0.3918613244966485	-0.14376877547219796	2.039797006977082	-0.6308474341456063	-1.5994240722634825	1.8785659577698328	0.9238431206809821	-0.12723967806565886	1.8599332670711073	-0.666815140262181
5	0.16666666666666666	-0.1623143878121888	1.859539007684218	-0.5523031978638814	-0.1816702156853182	1.8630411824538107	-0.45413619944020983	-0.16541239336792357	1.7290012053019572	-0.465697536461416	-0.1770375442400542	1.5701735266445045	-0.42870668849458765							-0.15679279625979964	1.5510213379655124	-0.41447683706044747	-0.15912452375270936	1.8616501205849443	-0.5951659404783557	-0.13852738688746113	1.7235574450340203	-0.6001134422420795	-0.14292520357772692	1.5825325740676988	-0.5785898750889829	-0.17650557907856856	1.545617210153448	-0.6151853005676655	-0.16209843062835938	1.5563643658363244	-0.6303074154178946	-0.14500511370856764	1.572472289746495	-0.5608252659128535	-0.1634955885599306	2.0450655253534493	-0.5477031497610036	-0.1951527665633149	2.1107222439471416	-0.5713835078060071	-0.17801692029846142	2.050261651047824	-0.46276498166712443	-0.18402654179184358	1.943316328709182	-0.4365892051858429	-0.20936038866293719	1.8565971479926024	-0.39452953923443757	-0.14375397306787072	2.04098957875143	-0.6313090201257214	-1.6063591547839653	1.8784517035463555	0.9361506847911248	-0.12907429962280792	1.8630636934519722	-0.6647457156741199
